IKResults
version=1
nRows=12
nColumns=24
inDegrees=yes

Units are S.I. units (second, meters, Newtons, ...)
Angles are in degrees.

endheader
time	pelvis_tilt	pelvis_list	pelvis_rotation	pelvis_tx	pelvis_ty	pelvis_tz	hip_flexion_r	hip_adduction_r	hip_rotation_r	knee_angle_r	ankle_angle_r	subtalar_angle_r	mtp_angle_r	hip_flexion_l	hip_adduction_l	hip_rotation_l	knee_angle_l	ankle_angle_l	subtalar_angle_l	mtp_angle_l	lumbar_extension	lumbar_bending	lumbar_rotation
      0.00000000	      5.56831676	      0.43837888	     -1.61740905	      0.95244099	      1.03016068	      1.56401271	     -9.22456081	     -2.12714699	      0.16763027	    -48.83272329	     -1.58919249	     11.53311620	    -41.79025910	     13.05215240	      1.49182028	      4.54417615	    -15.58067464	     -0.23198825	      4.14530147	    -46.74019046	    -15.96147267	     -1.96577930	      7.33242660
      0.01000000	      5.46880144	      0.29256980	     -1.22055494	      0.95169769	      1.03206129	      1.56323262	     -8.03873652	     -1.92891065	     -0.10724767	    -50.13146365	     -1.16531670	     11.32903432	    -41.70121117	     12.45071816	      1.42194805	      4.84424275	    -15.07133911	     -0.07210173	      4.34329338	    -46.74826165	    -15.96491035	     -1.65529985	      6.93866233
      0.02000000	      5.27676654	      0.08790206	     -0.71201749	      0.95063257	      1.03450969	      1.56223412	     -6.39898990	     -1.67157211	     -0.46167035	    -51.72113636	     -0.68297671	     11.12049527	    -41.55761897	     11.71191769	      1.30641789	      5.27696344	    -14.37494803	      0.12162240	      4.52900943	    -46.79360324	    -15.90184388	     -1.23711050	      6.44603580
      0.03000000	      5.04947792	     -0.18752326	     -0.05911871	      0.94927072	      1.03749711	      1.56103016	     -4.43423855	     -1.35195700	     -0.94949351	    -53.44050347	     -0.10939657	     10.86529275	    -41.37113609	     10.79942100	      1.11588912	      5.79933758	    -13.50346108	      0.33541136	      4.79417849	    -46.88319126	    -15.83232016	     -0.69578917	      5.80533118
      0.04000000	      4.79623776	     -0.54105657	      0.72919274	      0.94762358	      1.04089473	      1.55966683	     -2.21842720	     -0.98314440	     -1.59150668	    -55.13977377	      0.52321720	     10.56714260	    -41.18817022	      9.75828953	      0.82683360	      6.36827477	    -12.50706154	      0.54815288	      5.18548840	    -46.98550197	    -15.75655298	     -0.03156380	      5.04908754
      0.05000000	      4.45153195	     -0.95165787	      1.58377629	      0.94570195	      1.04448140	      1.55823577	      0.25681886	     -0.59293719	     -2.28435202	    -56.67475591	      1.01860108	     10.31168711	    -39.99889636	      8.67144086	      0.45394086	      7.03687726	    -11.35160911	      0.91016557	      5.43864254	    -49.18598208	    -15.58961028	      0.71133054	      4.20538526
      0.06000000	      4.07920677	     -1.43026470	      2.53246491	      0.94356487	      1.04813217	      1.55675286	      2.84141044	     -0.20643365	     -3.13175059	    -57.90786086	      1.57148116	      9.99812989	    -39.92385584	      7.58001055	     -0.04060975	      7.56510744	    -10.17366989	      1.10901429	      6.07183878	    -49.27895947	    -15.39011674	      1.54384149	      3.28335061
      0.07000000	      3.65597240	     -1.95783944	      3.51315500	      0.94123895	      1.05166483	      1.55530585	      5.49725453	      0.17388640	     -4.02230488	    -58.74795681	      2.06472440	      9.62543279	    -39.86112165	      6.52924357	     -0.63084627	      8.01007171	     -8.96998513	      1.32853889	      6.81684779	    -49.46789146	    -15.12322902	      2.42458640	      2.31897052
      0.08000000	      3.20484667	     -2.51956761	      4.51457988	      0.93877737	      1.05495507	      1.55390817	      8.13752226	      0.52375598	     -4.95596870	    -59.12432336	      2.47020763	      9.20558123	    -39.83490586	      5.54162953	     -1.30055372	      8.29754977	     -7.79254423	      1.56777616	      7.77418141	    -49.78601764	    -14.80558376	      3.33180869	      1.32663156
      0.09000000	      2.78849648	     -3.09534379	      5.52010642	      0.93624651	      1.05794885	      1.55257035	     10.64223168	      0.82191648	     -5.92559445	    -59.00881135	      2.95386068	      8.74941543	    -40.46445443	      4.60129261	     -2.03313691	      8.24688051	     -6.71364144	      1.98684192	      9.02484152	    -52.79302545	    -14.50126994	      4.24258629	      0.33012576
      0.10000000	      2.32551337	     -3.67035715	      6.50542953	      0.93363559	      1.06044992	      1.55131171	     13.07881945	      1.07561487	     -6.85943099	    -58.39392203	      3.14951253	      8.19604454	    -40.45150317	      3.78389962	     -2.78054785	      8.10326981	     -5.70933143	      2.18179587	     10.39634115	    -53.00589202	    -14.12115227	      5.12810740	     -0.66874972
      0.11000000	      1.87910382	     -4.20315102	      7.44260863	      0.93102018	      1.06244114	      1.55011579	     15.35173909	      1.24019069	     -7.73440113	    -57.31489844	      3.31208563	      7.65065632	    -40.56625984	      3.03686104	     -3.50314638	      7.73708405	     -4.83294002	      2.45273308	     12.01987224	    -53.32072443	    -13.73533961	      5.94478981	     -1.64292524
